<svg width="12" height="12" viewBox="0 0 12 12" fill="none" xmlns="http://www.w3.org/2000/svg">
<path d="M10.7463 12C10.4277 12 10.109 11.8826 9.85744 11.6312L0.36478 2.14181C-0.121593 1.65561 -0.121593 0.850856 0.36478 0.364652C0.851153 -0.121551 1.65618 -0.121551 2.14256 0.364652L11.6352 9.854C12.1216 10.3402 12.1216 11.145 11.6352 11.6312C11.3836 11.8826 11.065 12 10.7463 12Z" fill="#2B1D74"/>
<path d="M1.25367 12C0.93501 12 0.616352 11.8826 0.36478 11.6312C-0.121593 11.145 -0.121593 10.3402 0.36478 9.854L9.85744 0.364652C10.3438 -0.121551 11.1488 -0.121551 11.6352 0.364652C12.1216 0.850856 12.1216 1.65561 11.6352 2.14181L2.14256 11.6312C1.90776 11.8826 1.57233 12 1.25367 12Z" fill="#2B1D74"/>
</svg>
